# xmcd
#
# Track frame offsets:
#	150
#	19755
#	40499
#	57306
#	76149
#	96054
#	111313
#	140328
#	164963
#	176273
#	198979
#	215481
#	227814
#
# Disc length: 3347 seconds
#
# Revision: 0
# Processed by: cddbd v1.5.2PL0 Copyright (c) Steve Scherf et al.
# Submitted via: EZCDAudioConverter 2.1.7.1
#
DISCID=b30d110d
DTITLE=New Mastersounds - The Nashville Session
DYEAR=1900
DGENRE=
TTITLE0=One Note Brown
TTITLE1=Coming Up Roses
TTITLE2=Burnt Back
TTITLE3=Drop It Down
TTITLE4=The Minx
TTITLE5=102%
TTITLE6=Carrot Juice
TTITLE7=The Vandenburg Suite
TTITLE8=Made For Pleasure
TTITLE9=In The Middle
TTITLE10=Soulshine
TTITLE11=Monday Meters
TTITLE12=Make Me Proud!
EXTD=
EXTT0=
EXTT1=
EXTT2=
EXTT3=
EXTT4=
EXTT5=
EXTT6=
EXTT7=
EXTT8=
EXTT9=
EXTT10=
EXTT11=
EXTT12=
PLAYORDER=
